<?xml version="1.0" encoding="UTF-8"?>
<!DOCTYPE svg PUBLIC "-//W3C//DTD SVG 1.1//EN" "http://www.w3.org/Graphics/SVG/1.1/DTD/svg11.dtd">
<!-- Creator: CorelDRAW X7 -->
<svg xmlns="http://www.w3.org/2000/svg" xml:space="preserve" width="8.90786in" height="4.28367in" version="1.1" style="shape-rendering:geometricPrecision; text-rendering:geometricPrecision; image-rendering:optimizeQuality; fill-rule:evenodd; clip-rule:evenodd"
viewBox="0 0 8908 4284"
 xmlns:xlink="http://www.w3.org/1999/xlink">
 <defs>
  <style type="text/css">
   <![CDATA[
    .fil1 {fill:black}
    .fil0 {fill:#EA1C24}
   ]]>
  </style>
 </defs>
 <g id="Layer_x0020_1">
  <metadata id="CorelCorpID_0Corel-Layer"/>
  <g id="_331375664">
   <g>
    <path class="fil0" d="M4229 2657c-143,0 -259,-41 -347,-124l107 -157c68,69 152,103 250,103 35,0 62,-5 81,-16 20,-11 29,-26 29,-46 0,-15 -11,-28 -33,-39 -21,-10 -49,-17 -82,-22 -32,-5 -68,-13 -105,-24 -38,-11 -74,-24 -107,-40 -32,-15 -60,-39 -81,-73 -22,-33 -33,-74 -33,-120 0,-70 27,-129 83,-177 55,-48 131,-72 227,-72 127,0 233,37 317,109l-110 151c-65,-54 -141,-82 -228,-82 -56,0 -84,18 -84,54 0,17 15,31 45,41 31,10 68,20 111,29 43,9 86,21 129,35 43,14 80,39 110,75 31,35 46,80 46,134 0,80 -28,143 -85,190 -57,48 -137,71 -240,71l0 0zm-579 -89c-62,59 -154,89 -275,89 -121,0 -213,-30 -276,-90 -63,-60 -94,-140 -94,-240l0 -465 205 0 0 458c0,48 14,86 43,115 28,30 69,44 122,44 52,0 93,-14 121,-44 29,-29 43,-67 43,-115l0 -458 204 0 0 464c0,101 -31,182 -93,242zm-841 75l-201 0 0 -781 201 0 0 781zm-397 0l-194 0 -330 -452 0 452 -202 0 0 -781 208 0 316 430 0 -430 202 0 0 781 0 0zm-898 0l-572 0 0 -781 572 0 0 176 -371 0 0 122 363 0 0 175 -363 0 0 132 371 0 0 176zm-1091 14c-120,0 -220,-37 -301,-111 -81,-74 -122,-172 -122,-293 0,-121 41,-218 122,-292 81,-75 181,-112 301,-112 81,0 149,18 205,54 55,36 98,81 128,136l-168 88c-16,-28 -38,-52 -68,-71 -29,-19 -61,-29 -97,-29 -64,0 -116,22 -157,65 -41,43 -61,97 -61,161 0,64 20,118 61,162 41,43 93,64 157,64 27,0 54,-4 81,-14 27,-9 48,-20 63,-32l0 -61 -176 0 0 -177 377 0 0 310c-91,102 -206,152 -345,152zm4280 -1124c-119,0 -220,-37 -301,-111 -81,-74 -122,-172 -122,-293 0,-121 41,-218 122,-292 81,-75 182,-112 301,-112 81,0 150,18 205,54 55,36 98,81 129,136l-169 88c-15,-28 -38,-52 -67,-71 -29,-19 -62,-29 -98,-29 -63,0 -115,22 -156,65 -41,43 -62,97 -62,161 0,64 21,118 62,161 41,44 93,65 156,65 27,0 54,-4 81,-14 27,-9 48,-20 63,-32l0 -61 -176 0 0 -177 377 0 0 310c-91,101 -206,152 -345,152zm-579 -14l-194 0 -330 -452 0 452 -201 0 0 -781 207 0 316 430 0 -430 203 0 -1 781 0 0zm-921 0l-202 0 0 -781 202 0 0 781zm-780 -176c66,0 119,-20 158,-62 39,-42 59,-93 59,-153 0,-63 -19,-115 -57,-155 -37,-39 -90,-59 -159,-59l-127 0 0 430 126 -1 0 0zm1 176l-329 0 0 -781 328 0c125,0 227,35 305,105 79,71 118,166 118,285 0,119 -39,214 -118,285 -78,71 -180,106 -304,106zm-525 0l-194 0 -330 -452 0 452 -202 0 0 -781 208 0 316 430 0 -430 202 0 0 781 0 0zm-921 0l-202 0 0 -781 202 0c0,0 0,781 0,781zm-737 0l-201 0 0 -781 572 0 0 176 -371 0 0 121 363 0 0 176 -363 0c0,0 0,308 0,308z"/>
   </g>
   <path class="fil1" d="M261 3350l0 0 166 0c30,0 54,-8 73,-24 19,-15 29,-36 29,-63 0,-27 -10,-49 -29,-64 -20,-16 -44,-24 -73,-24l-166 0c0,0 0,175 0,175zm-211 457l0 -816 409 0c88,0 157,26 208,78 50,52 75,116 75,194 0,77 -25,141 -75,193 -51,51 -120,77 -208,77l-198 0 0 274 -211 0 0 0z"/>
   <g>
    <path class="fil1" d="M1131 3231l0 0c-41,45 -62,101 -62,169 0,68 21,124 62,169 41,44 94,67 160,67 67,0 120,-23 161,-67 41,-45 61,-101 61,-169 0,-68 -20,-124 -61,-169 -41,-45 -94,-67 -161,-67 -66,0 -119,22 -160,67l0 0zm-152 472c-82,-79 -124,-180 -124,-303 0,-123 42,-224 124,-303 83,-80 187,-119 313,-119 125,0 229,39 312,119 82,79 123,180 123,303 0,123 -41,224 -123,303 -83,79 -187,119 -312,119 -126,0 -230,-40 -313,-119z"/>
   </g>
   <path class="fil1" d="M2105 3624l0 0 131 0c70,0 125,-22 166,-66 40,-43 61,-97 61,-159 0,-67 -20,-120 -59,-162 -39,-42 -94,-62 -166,-62l-133 0 0 449 0 0zm-211 183l0 -816 343 0c131,0 237,37 319,111 82,73 124,172 124,297 0,124 -42,223 -124,297 -82,74 -188,111 -318,111l-344 0 0 0z"/>
   <path class="fil1" d="M2802 3400c0,-125 42,-226 125,-305 84,-78 189,-117 316,-117 91,0 165,20 223,62 57,42 102,93 133,156l-181 86c-14,-33 -37,-61 -69,-84 -32,-23 -68,-34 -106,-34 -66,0 -120,22 -163,67 -43,45 -64,101 -64,169 0,67 21,123 64,168 43,45 97,68 163,68 38,0 74,-12 106,-34 32,-23 55,-51 69,-85l181 86c-31,62 -76,114 -134,156 -58,42 -132,63 -222,63 -126,0 -231,-39 -315,-118 -84,-79 -126,-181 -126,-304z"/>
   <path class="fil1" d="M4000 3506l0 0 207 0 -103 -307 -104 307zm-336 301l307 -816 265 0 307 816 -238 0 -41 -118 -322 0 -40 118 -238 0z"/>
   <path class="fil1" d="M4605 3692l112 -164c71,72 158,108 261,108 36,0 64,-6 85,-17 20,-12 30,-27 30,-48 0,-16 -11,-30 -34,-40 -23,-11 -51,-19 -86,-24 -34,-5 -71,-14 -110,-25 -40,-11 -77,-25 -111,-41 -34,-16 -63,-41 -86,-76 -22,-35 -34,-77 -34,-126 0,-73 29,-134 87,-184 58,-50 137,-76 237,-76 133,0 243,38 331,114l-114 158c-68,-57 -148,-85 -239,-85 -59,0 -88,18 -88,56 0,18 16,32 48,42 32,11 70,21 115,30 46,10 90,22 135,37 45,15 83,41 115,78 32,37 48,84 48,140 0,83 -30,149 -89,199 -60,49 -143,74 -251,74 -149,0 -270,-44 -362,-130z"/>
   <polygon class="fil1" points="5419,3175 5419,2991 6086,2991 6086,3175 5858,3175 5858,3807 5648,3807 5648,3175 "/>
   <path class="fil1" d="M8453 2959c104,49 114,113 36,191 -83,84 -90,140 -32,245 31,56 5,146 -64,178 -54,26 -117,42 -177,47 -150,11 -296,-18 -439,-56 -48,-13 -81,-1 -116,29 -112,97 -160,226 -174,368 -9,90 -2,181 -1,271 0,15 2,30 3,49 -21,1 -37,3 -53,3 -390,0 -781,0 -1171,0 -60,0 -65,-4 -66,-63 -2,-353 233,-676 553,-762 583,-157 992,-529 1254,-1063 276,-563 139,-1254 -319,-1684 -384,-360 -987,-374 -1389,-29 -274,235 -409,537 -421,895 -7,191 20,375 113,545 55,101 127,188 221,255 127,90 262,99 402,29 26,-13 42,-28 39,-59 -3,-41 18,-56 58,-56 129,2 257,2 386,0 40,0 57,14 57,56 0,41 -11,65 -56,59 -30,-3 -46,10 -61,35 -261,436 -878,484 -1205,95 -218,-260 -325,-566 -360,-900 -26,-245 -7,-486 99,-711 239,-507 628,-826 1192,-914 140,-22 280,-10 420,6 183,21 362,54 532,126 271,115 488,295 663,533 186,254 225,543 222,843 -1,63 -20,126 -27,189 -14,129 17,241 118,331 61,54 119,113 170,176 90,111 50,213 -90,243 -12,2 -24,5 -35,8 -214,64 -225,141 -214,338 0,3 1,6 2,9 29,98 29,98 -70,145z"/>
   <path class="fil0" d="M7160 1239l0 0 -115 0c-4,0 -8,1 -12,3 -12,3 -16,18 -11,28 4,8 13,14 23,14l115 0 0 22 0 5 0 13 -115 0c-13,0 -24,11 -24,23 0,12 11,23 24,23l110 0 0 105c-43,3 -87,6 -131,7 -8,0 -17,-4 -24,-9 -76,-56 -118,-54 -182,0 -55,-3 -101,-6 -151,-9l0 -94c1,0 1,0 2,0l105 0c10,0 20,-7 23,-17 4,-15 -8,-29 -22,-29l-106 0c-1,0 -3,1 -4,1l-3 0 0 -41c3,0 5,1 7,1l106 0c8,0 15,-5 19,-11 1,-1 1,-2 2,-3l0 0c3,-6 2,-14 -2,-21 0,0 -1,-1 -1,-1 0,0 0,0 -1,-1 -4,-5 -10,-8 -17,-8l-106 0c-2,0 -4,0 -7,1l0 -42c3,1 5,1 7,1l105 0c10,0 20,-6 23,-16 4,-16 -8,-29 -22,-29l-106 0c-2,0 -4,0 -6,1 -3,-86 34,-147 97,-193 86,-64 179,-71 272,-16 76,44 121,109 121,208l-108 0c-13,0 -24,10 -24,22 0,13 11,23 24,23l115 0 0 39 0 0zm44 409c-2,-169 -5,-338 -6,-507 -2,-152 -132,-273 -296,-273 -156,1 -287,130 -286,279 1,165 2,329 2,494 0,16 0,33 0,56 16,-13 25,-21 34,-29 10,-7 19,-14 29,-21 -32,-57 -31,-93 3,-122 30,-25 63,-26 93,-3 13,10 28,26 28,40 1,29 -8,58 -14,99 24,-15 46,-28 68,-41 -34,-54 -34,-90 -2,-120 28,-27 71,-29 101,-4 34,28 36,66 4,124 18,13 37,26 56,39 1,1 5,-2 8,-3 -29,-68 -27,-100 9,-126 33,-23 67,-21 98,5 33,27 33,60 2,119 20,15 39,29 69,52 0,-25 1,-41 0,-58z"/>
   <path class="fil0" d="M7195 1788c-1,0 -1,0 -1,0 0,-2 0,-4 0,-6 -5,0 -10,0 -15,0 -22,-7 -35,-1 -41,28 -28,123 -122,203 -235,206 -114,-3 -208,-83 -235,-206 -7,-29 -20,-35 -42,-28 -5,0 -10,0 -14,0 -1,2 -1,4 -1,6 0,0 0,0 0,0 0,1 0,1 0,2 -3,73 36,145 100,197 36,31 80,53 134,65 8,2 15,4 23,6 0,27 0,56 0,84 0,28 0,55 0,88 -45,0 -100,-1 -137,0 -55,0 -59,5 -57,63l208 0 41 0 208 0c2,-58 -2,-63 -57,-63 -37,-1 -92,0 -137,0 0,-33 0,-60 0,-88 0,-28 0,-57 0,-84 8,-2 16,-4 23,-6 54,-12 98,-34 134,-65 65,-52 103,-124 100,-197 0,-1 0,-1 1,-2z"/>
   <path class="fil0" d="M7523 1080c0,0 173,263 0,667l77 69c0,0 235,-344 0,-810l-77 74z"/>
   <path class="fil0" d="M7364 1241l83 -75c0,0 115,254 0,491l-83 -72c0,0 67,-165 0,-344z"/>
   <path class="fil0" d="M6293 1080c0,0 -174,263 0,667l-77 69c0,0 -235,-344 0,-810l77 74z"/>
   <path class="fil0" d="M6452 1241l-83 -75c0,0 -116,254 0,491l83 -72c0,0 -67,-165 0,-344z"/>
  </g>
 </g>
</svg>
